<?xml version="1.0" standalone="no"?>
<!DOCTYPE svg PUBLIC "-//W3C//DTD SVG 20010904//EN"
 "http://www.w3.org/TR/2001/REC-SVG-20010904/DTD/svg10.dtd">
<svg version="1.0" xmlns="http://www.w3.org/2000/svg"
 width="700.000000pt" height="700.000000pt" viewBox="0 0 700.000000 700.000000"
 preserveAspectRatio="xMidYMid meet">
<metadata>
Created by potrace 1.14, written by Peter Selinger 2001-2017
</metadata>
<g transform="translate(0.000000,700.000000) scale(0.100000,-0.100000)"
fill="#000000" stroke="none">
<path d="M3205 6521 c-9 -29 -77 -43 -126 -26 -21 8 -48 12 -61 10 -13 -2 -52
-6 -88 -10 -36 -3 -74 -12 -86 -20 -17 -11 -31 -11 -81 -1 -81 17 -158 13
-183 -9 -18 -17 -21 -16 -66 10 -43 26 -53 27 -158 26 -167 -2 -198 -10 -191
-49 3 -20 -24 -54 -36 -46 -5 3 -9 14 -9 24 0 40 -75 65 -139 48 -25 -7 -48
-5 -87 7 -40 13 -58 14 -73 5 -16 -8 -27 -7 -48 3 -33 17 -80 14 -101 -7 -13
-13 -11 -17 19 -35 35 -22 76 -19 94 6 8 11 19 4 55 -32 24 -25 42 -45 40 -45
-45 -4 -87 -15 -92 -24 -13 -20 29 -51 72 -51 48 0 73 22 76 67 2 45 1 43 29
56 21 10 26 9 35 -8 5 -10 10 -32 10 -48 0 -51 77 -97 149 -88 46 5 60 23 71
92 14 83 36 95 121 63 22 -9 49 -13 97 -18 15 -1 15 -28 0 -86 -10 -36 -9 -56
3 -107 9 -41 12 -83 8 -118 -4 -30 -5 -69 -2 -87 3 -18 -2 -51 -11 -75 -8 -24
-17 -62 -19 -86 -2 -23 -6 -44 -8 -46 -2 -2 -33 -7 -68 -10 -35 -4 -68 -9 -74
-13 -17 -10 -161 -11 -174 -1 -18 15 -61 1 -68 -21 -8 -26 -35 -47 -43 -35
-15 23 -58 44 -88 44 -38 0 -84 -34 -84 -61 0 -59 60 -106 102 -80 13 8 89 14
229 16 l209 4 21 -42 c12 -23 34 -58 49 -77 35 -46 42 -67 29 -91 -7 -14 -7
-30 0 -52 6 -18 13 -68 16 -112 7 -86 8 -98 22 -160 6 -26 6 -59 -1 -96 -11
-51 -11 -137 -2 -384 2 -49 7 -101 10 -115 10 -37 15 -418 7 -471 -6 -37 -4
-51 11 -69 14 -18 16 -26 6 -43 -7 -12 -13 -33 -13 -47 -1 -14 -5 -45 -8 -70
-13 -91 -15 -188 -6 -300 12 -136 12 -156 3 -237 -5 -53 -3 -69 15 -104 l22
-41 -36 -39 c-19 -21 -35 -43 -35 -47 0 -5 11 -24 25 -42 23 -31 25 -43 23
-110 -1 -47 4 -87 12 -107 12 -27 12 -38 1 -69 -7 -21 -15 -56 -17 -78 -10
-115 -16 -160 -23 -175 -10 -20 -4 -40 22 -69 12 -13 22 -33 23 -46 0 -13 21
-48 46 -78 55 -65 62 -82 48 -123 -10 -29 -14 -32 -52 -32 -58 0 -68 -18 -62
-107 16 -229 15 -293 -5 -331 -18 -34 -18 -40 -5 -78 24 -67 23 -107 -4 -177
-14 -36 -24 -77 -23 -92 4 -71 4 -112 -1 -233 -3 -71 -1 -143 3 -158 10 -34
10 -77 5 -256 -4 -137 3 -185 33 -200 9 -5 42 -11 73 -12 51 -4 59 -1 87 25
l31 30 57 -19 c32 -10 87 -19 123 -20 36 -2 85 -6 110 -10 34 -4 65 0 124 19
75 23 82 24 150 11 39 -7 141 -16 226 -20 85 -4 169 -8 185 -9 17 -1 46 1 67
6 42 9 63 9 363 2 121 -2 272 -4 335 -3 124 2 179 2 251 0 25 -1 64 4 85 11
38 13 39 15 38 58 -1 25 -7 88 -13 140 -7 52 -14 122 -17 155 -3 33 -10 74
-15 92 -6 18 -10 126 -10 240 1 199 3 231 16 273 3 10 2 27 -4 37 -5 10 -15
34 -21 53 -10 33 -9 37 21 62 32 27 33 38 14 111 -2 4 -3 23 -4 42 -1 28 -6
36 -26 41 -31 8 -61 -16 -81 -63 -18 -43 -18 -77 2 -115 15 -29 15 -33 -7 -72
-12 -23 -35 -58 -50 -79 l-27 -37 1 -238 c0 -231 -8 -449 -19 -525 l-6 -37
-31 22 c-54 38 -116 105 -123 133 -7 29 -5 37 31 123 l26 63 -30 35 -31 34 22
58 c28 71 32 228 8 257 -8 10 -17 48 -21 84 -4 56 -3 68 13 79 17 13 17 15 -4
51 -28 49 -20 71 27 71 20 0 35 5 35 12 0 14 -48 79 -72 96 -17 12 -17 15 -3
35 20 29 19 65 -5 109 -15 29 -17 38 -6 47 13 11 46 19 84 20 38 2 29 30 -22
65 -19 13 -19 15 -3 40 11 16 27 26 42 26 29 0 35 -8 25 -35 -16 -44 45 -110
88 -94 12 5 23 14 23 21 1 7 3 29 4 48 2 19 3 40 4 46 2 21 45 32 81 20 26 -8
40 -21 53 -51 22 -47 56 -87 68 -79 5 3 20 -7 34 -22 21 -23 25 -36 25 -93 0
-37 5 -72 10 -77 8 -8 7 -25 -2 -58 -11 -40 -10 -54 5 -95 9 -27 15 -62 12
-77 -3 -16 -7 -42 -9 -59 -2 -16 -9 -48 -15 -71 -6 -24 -7 -52 -2 -70 4 -16 5
-38 1 -49 -16 -46 2 -118 42 -162 17 -18 18 -25 7 -44 -6 -13 -13 -48 -15 -79
-1 -30 -10 -72 -18 -93 -12 -26 -17 -78 -20 -175 -2 -81 -8 -147 -15 -160 -10
-19 -9 -27 10 -53 27 -38 58 -51 99 -39 17 5 62 12 100 16 57 5 76 3 107 -12
92 -46 389 -12 534 62 60 30 79 49 79 81 0 15 11 36 25 49 32 29 31 40 -1 57
-26 14 -26 14 -25 134 1 65 -3 150 -10 189 -15 90 -17 131 -8 177 3 21 1 64
-7 100 -18 82 -17 125 2 178 30 84 47 326 25 353 -7 9 -5 17 10 29 13 12 18
24 14 38 -4 11 -8 33 -10 49 -2 16 -8 37 -13 47 -11 20 -9 198 2 223 7 17 10
39 21 165 10 104 16 119 60 139 42 20 57 17 80 -17 19 -30 24 -84 24 -252 0
-316 3 -432 12 -466 6 -23 5 -47 -1 -66 -14 -38 -19 -176 -9 -229 4 -23 3 -69
-3 -105 -6 -35 -10 -129 -10 -209 1 -104 -3 -156 -14 -185 -9 -26 -16 -97 -20
-206 -3 -91 -9 -179 -13 -195 -14 -50 50 -136 97 -128 6 1 19 2 27 3 8 0 28
22 45 48 23 37 30 58 28 94 -1 25 2 51 6 57 4 7 1 15 -8 18 -22 8 -20 36 5 80
23 42 27 80 11 111 -8 14 -8 31 -2 54 15 53 12 104 -7 122 -18 16 -21 17 -48
17 -23 0 -18 22 11 47 21 18 30 20 46 12 33 -18 46 -4 52 58 8 90 8 92 -9 110
-13 12 -15 27 -10 69 4 39 2 62 -10 83 -8 17 -17 52 -20 78 -3 26 -7 57 -9 68
-2 11 3 37 12 58 11 29 12 44 4 62 -8 17 -7 38 3 82 20 83 19 93 -9 93 -35 0
-41 45 -12 90 32 50 44 105 39 180 -2 36 -4 85 -4 109 0 25 -4 51 -10 58 -7 8
-8 31 -3 65 8 55 7 164 -2 233 -4 29 -15 50 -40 74 -33 31 -34 34 -17 47 10 7
35 17 56 20 44 8 55 25 38 58 -22 40 -61 55 -138 53 -59 -2 -76 -6 -96 -25
-13 -13 -41 -25 -61 -29 -31 -5 -41 -2 -66 22 -16 15 -36 48 -44 72 -8 24 -24
55 -35 70 -25 30 -26 49 -7 94 8 19 11 43 6 58 -14 52 4 94 56 130 37 25 86
30 110 10 26 -21 137 -10 181 18 19 13 39 20 66 22 4 1 7 9 7 19 0 18 -23 44
-78 88 -18 15 -51 53 -73 85 -33 49 -38 62 -29 79 9 16 8 20 -5 20 -8 0 -15
-6 -15 -13 0 -7 -13 -23 -30 -35 -25 -19 -30 -30 -30 -62 0 -27 -7 -47 -20
-60 -41 -41 -61 -19 -69 73 -2 13 -68 8 -80 -6 -8 -11 -7 -26 3 -60 24 -79
-19 -103 -59 -34 -30 52 -66 63 -85 26 -9 -16 -7 -28 9 -60 25 -47 25 -49 7
-49 -8 0 -26 14 -40 31 -36 42 -36 100 -1 127 31 24 31 28 1 47 -21 14 -26 14
-52 0 -16 -8 -35 -15 -41 -15 -19 0 -16 -18 7 -47 22 -28 18 -43 -11 -43 -11
0 -40 -19 -64 -41 -38 -35 -49 -40 -72 -34 -16 4 -56 8 -90 9 -35 1 -68 7 -75
14 -20 20 -10 84 18 107 l24 20 -22 42 c-25 49 -20 61 14 40 46 -30 105 -22
110 16 2 15 10 22 26 23 30 2 34 7 39 51 5 47 16 60 63 73 21 6 43 16 49 23
18 22 19 60 4 91 -13 26 -13 35 3 85 16 49 17 93 15 371 -2 393 -3 353 3 430
3 46 0 71 -10 88 -11 17 -13 34 -7 70 5 26 5 70 0 97 -5 28 -8 75 -8 106 1 50
-2 57 -26 70 -36 19 -63 13 -95 -22 -21 -22 -35 -29 -60 -27 -38 2 -88 24
-104 46 -10 14 -13 14 -28 -1 -10 -9 -21 -17 -26 -17 -5 0 -32 -20 -61 -45
-59 -50 -82 -54 -144 -26 -65 29 -91 33 -106 15 -18 -22 -23 -355 -5 -399 6
-16 10 -41 8 -55 -8 -56 -9 -364 -1 -398 16 -73 17 -156 3 -190 -7 -18 -16
-66 -18 -105 -3 -40 -8 -98 -12 -129 l-7 -58 35 -15 c68 -28 141 18 124 77
-20 66 -25 142 -13 197 13 61 11 110 -8 185 -14 55 -14 66 -1 98 9 20 13 46 9
59 -7 29 -4 497 4 523 4 16 12 18 67 12 110 -13 106 20 94 -661 -7 -388 -18
-607 -30 -622 -6 -7 -21 -13 -33 -13 -27 0 -36 -17 -23 -43 43 -84 -9 -85
-100 -3 -53 48 -99 44 -173 -15 -26 -20 -42 -43 -49 -69 -6 -22 -25 -58 -43
-82 -18 -24 -38 -56 -45 -71 -13 -29 -64 -57 -105 -57 -39 0 -59 23 -63 69 -2
24 -8 57 -14 75 -20 61 -19 76 3 101 15 17 35 26 63 29 51 5 81 20 89 46 11
33 -11 57 -64 70 -87 21 -109 55 -116 187 -3 46 -11 92 -17 103 -10 16 -9 22
5 32 15 11 16 21 9 76 -5 34 -7 74 -5 90 2 15 5 167 8 337 4 313 8 375 20 395
22 35 92 23 115 -20 6 -11 10 -86 9 -179 0 -89 2 -165 6 -171 3 -5 8 -65 9
-133 2 -67 7 -134 11 -148 4 -17 1 -38 -9 -57 -11 -22 -16 -56 -15 -119 1 -48
-3 -99 -8 -113 -4 -14 -8 -32 -7 -40 1 -8 2 -24 3 -35 2 -28 42 -72 74 -80 57
-15 71 34 41 136 -16 54 -23 244 -11 302 11 51 5 836 -6 854 -6 10 -19 8 -55
-6 -51 -20 -69 -17 -103 19 -37 37 -49 80 -54 182 -3 57 -8 126 -12 153 -8 51
-8 74 1 300 3 72 1 153 -5 180 -14 74 -21 184 -14 227 6 35 9 38 40 38 35 0
86 -35 107 -73 6 -12 12 -89 14 -182 2 -88 5 -206 8 -263 4 -93 2 -109 -19
-154 -16 -36 -22 -61 -18 -91 12 -110 115 -203 151 -137 10 19 11 47 6 110 -9
121 -9 259 1 380 11 132 12 194 3 245 -3 22 -9 56 -12 75 -8 51 -50 153 -83
202 -83 122 -98 138 -130 147 -31 9 -152 6 -161 -4 -2 -2 -22 3 -44 12 -50 20
-149 23 -171 5 -33 -28 5 -56 92 -68 56 -7 61 -11 83 -69 18 -48 12 -69 -27
-95 -38 -25 -78 -25 -134 0 -51 23 -113 25 -195 6 -50 -12 -65 -12 -99 0 -21
8 -43 12 -47 9 -5 -3 -28 -8 -52 -11 -24 -3 -61 -10 -83 -16 -59 -17 -57 -16
-207 -22 -160 -6 -155 -8 -160 95 l-3 64 45 3 c25 1 67 10 95 19 59 20 164 21
240 3 61 -15 85 -5 85 35 0 40 -34 59 -113 62 -40 2 -82 5 -93 8 -12 3 -39 -1
-60 -8 -30 -10 -47 -11 -73 -2 -27 10 -48 9 -104 -3 -69 -15 -70 -15 -88 6
-21 27 -26 27 -34 3z m-470 -114 c22 1 63 2 92 3 38 1 68 -6 112 -25 l61 -28
35 32 c29 25 40 29 55 21 45 -24 61 -86 65 -249 3 -74 9 -157 14 -185 5 -28
10 -93 10 -144 0 -51 3 -97 6 -102 3 -4 -2 -29 -10 -54 -9 -25 -13 -57 -11
-70 12 -69 16 -246 6 -296 -6 -30 -11 -66 -12 -80 0 -65 14 -259 21 -295 5
-22 10 -80 11 -129 0 -49 5 -96 10 -105 11 -21 4 -229 -9 -262 -5 -15 -8 -73
-5 -134 2 -58 1 -121 -4 -139 -7 -24 -4 -48 9 -92 24 -75 31 -149 19 -194 -5
-20 -12 -124 -15 -233 -2 -110 -9 -206 -15 -217 -13 -25 -38 -25 -70 -3 -14
10 -26 17 -28 16 -16 -14 -62 -31 -65 -25 -2 4 -4 39 -6 77 -1 39 -6 99 -12
135 -6 36 -10 116 -9 179 1 101 4 119 27 162 22 43 25 57 19 107 -6 51 -7 79
-4 187 0 17 0 39 -1 50 -1 11 -1 59 0 106 1 47 -3 95 -9 105 -6 11 -10 41 -10
68 0 26 -2 50 -5 52 -3 3 1 24 8 48 9 29 10 58 4 92 -4 27 -10 186 -13 354 -3
168 -7 321 -10 340 -3 19 -5 60 -5 90 0 30 0 75 0 100 0 25 0 88 1 140 1 171
0 214 -10 319 -8 90 -12 107 -32 123 -27 22 -69 23 -96 4 -17 -13 -19 -26 -17
-138 1 -68 2 -195 1 -283 -1 -307 -1 -760 0 -790 1 -16 -1 -59 -4 -95 -12
-158 -12 -188 1 -245 7 -34 14 -124 15 -205 1 -102 5 -151 14 -165 12 -18 11
-25 0 -47 -15 -28 -16 -44 -11 -116 3 -42 30 -88 46 -78 4 3 27 -15 51 -39 42
-43 43 -46 27 -63 -17 -16 -19 -15 -45 16 -15 18 -32 32 -39 32 -31 0 -48 -78
-45 -205 1 -49 1 -101 1 -115 -2 -45 -1 -74 4 -126 3 -28 0 -70 -6 -92 -9 -34
-8 -48 6 -77 l17 -35 -33 -16 c-17 -9 -41 -23 -53 -31 -18 -12 -24 -11 -46 6
-14 12 -33 18 -45 15 -38 -10 -45 35 -48 323 -1 147 -5 275 -9 284 -4 10 -3
34 3 55 13 51 25 149 23 197 -1 21 5 52 14 69 14 27 14 31 -2 49 -11 13 -18
34 -17 57 1 20 1 66 0 102 0 36 0 94 1 130 3 90 3 147 1 450 -1 146 0 290 2
321 3 45 -1 61 -19 83 -18 23 -20 32 -10 50 7 14 11 77 10 181 -7 645 -7 660
6 683 10 17 18 21 30 16 9 -5 35 -8 57 -7z m1365 -321 c220 -9 245 -17 233
-71 -20 -97 -26 -446 -8 -547 10 -63 -7 -104 -54 -127 -20 -9 -49 -16 -66 -14
-16 1 -74 4 -127 6 -54 2 -101 6 -104 10 -4 4 -18 0 -32 -9 -19 -12 -62 -16
-210 -19 -103 -2 -207 -8 -232 -13 -78 -14 -145 -3 -154 26 -3 9 -8 53 -11 97
-3 43 -14 115 -24 160 -15 65 -18 115 -16 265 1 102 5 192 9 201 13 29 51 42
98 35 95 -16 216 -18 259 -3 44 15 137 16 439 3z m-660 -931 c34 -12 71 -14
174 -9 220 10 257 10 301 -2 24 -6 51 -10 62 -9 233 23 286 25 302 12 22 -18
33 -57 44 -152 2 -18 -4 -20 -58 -21 -33 0 -83 -4 -112 -9 -48 -7 -53 -6 -77
20 -19 20 -30 25 -47 20 -13 -4 -38 -9 -56 -11 -44 -4 -52 -10 -69 -50 -17
-41 -8 -91 20 -109 11 -7 44 -17 71 -20 28 -4 68 -13 90 -20 22 -7 52 -15 66
-19 15 -3 31 -17 38 -33 7 -16 29 -53 49 -83 20 -30 42 -64 48 -75 42 -76 55
-106 55 -122 0 -10 -2 -61 -5 -113 -2 -52 -1 -120 3 -150 4 -36 2 -69 -7 -95
-18 -54 -22 -167 -9 -242 10 -58 9 -64 -15 -100 -31 -48 -48 -96 -43 -125 8
-51 9 -64 1 -85 -4 -13 -12 -23 -17 -23 -6 0 -8 -17 -4 -44 8 -49 -3 -78 -44
-115 -54 -49 -122 -61 -155 -28 -39 38 -53 77 -43 115 6 26 6 46 -3 67 -15 39
-15 39 15 41 36 2 40 10 26 50 -12 32 -11 38 18 81 19 29 31 60 32 82 2 98 10
173 24 231 23 95 27 124 23 156 -3 23 1 50 9 67 8 16 16 49 19 75 3 26 7 61
10 77 2 17 7 60 11 97 5 62 4 68 -21 93 -23 23 -33 26 -93 24 -39 -1 -91 5
-122 14 -49 15 -55 15 -76 -1 -31 -24 -65 -90 -65 -129 0 -34 -32 -152 -70
-258 -12 -33 -23 -69 -26 -80 -10 -43 -23 -122 -27 -170 -3 -27 -15 -74 -26
-103 -12 -30 -19 -57 -17 -61 3 -4 -9 -26 -25 -50 -16 -24 -29 -51 -29 -60 0
-9 -9 -34 -20 -55 -10 -22 -17 -43 -14 -48 3 -4 -2 -34 -11 -66 -11 -37 -15
-75 -12 -109 6 -57 5 -58 -24 -42 -15 7 -27 6 -50 -5 -29 -14 -32 -14 -77 17
-78 53 -86 75 -56 145 9 20 16 55 15 77 0 27 7 47 22 63 18 20 19 24 7 32 -8
5 -23 10 -32 10 -33 0 -31 20 8 78 2 2 16 -4 33 -14 17 -10 33 -16 35 -13 3 3
8 40 11 84 8 87 17 120 44 150 19 21 111 176 125 210 5 11 10 38 13 60 3 22
13 58 22 80 13 29 15 48 9 65 -6 17 -4 35 6 60 8 19 17 56 20 83 l6 47 -41 0
c-22 0 -50 -5 -62 -12 -47 -24 -80 -99 -71 -158 4 -26 1 -45 -9 -61 -16 -23
-50 -149 -41 -149 3 0 0 -9 -6 -20 -6 -11 -13 -37 -16 -57 -5 -45 -6 -46 -47
-50 -84 -10 -81 -11 -105 37 -18 35 -22 55 -18 90 9 75 17 114 28 133 10 19
36 111 44 157 7 38 14 60 34 115 11 28 21 62 24 77 18 83 170 164 239 126 11
-5 34 -7 52 -4 27 5 36 13 45 40 24 73 -13 119 -83 105 -173 -35 -247 -14
-261 72 -3 20 -10 49 -16 64 -21 55 3 67 80 40z m1923 -230 c50 -35 66 -68 61
-135 -9 -126 -8 -184 2 -258 10 -66 11 -261 1 -342 -2 -14 4 -40 14 -57 14
-29 15 -38 3 -85 -8 -28 -12 -54 -9 -56 2 -3 -4 -17 -15 -32 -22 -31 -26 -55
-10 -65 16 -10 12 -35 -6 -35 -8 0 -37 7 -63 16 -55 18 -71 40 -76 105 -1 24
-8 57 -14 73 -7 17 -11 75 -10 136 1 63 -3 116 -10 128 -6 11 -9 38 -6 59 3
21 8 53 11 72 2 18 6 37 9 41 7 12 16 131 19 277 5 188 19 212 99 158z m-1359
-547 c36 -55 39 -194 7 -292 -11 -34 -27 -110 -35 -171 -8 -60 -20 -124 -26
-142 -9 -25 -8 -37 4 -62 21 -40 15 -74 -14 -81 -19 -5 -26 -18 -41 -80 -11
-41 -21 -93 -24 -115 -13 -109 -33 -130 -89 -95 -19 11 -39 27 -46 35 -7 8
-25 15 -40 15 -54 0 -63 50 -19 109 13 17 21 50 25 96 4 41 14 83 25 101 11
17 30 66 44 109 23 70 24 79 10 95 -19 21 -19 37 1 48 8 5 17 17 18 28 2 11
11 19 21 19 15 0 19 10 21 50 4 73 9 97 24 125 8 15 13 50 12 87 -2 53 0 63
18 73 11 6 20 19 20 29 0 17 31 39 57 40 7 1 19 -9 27 -21z m1276 -538 c-13
-24 -33 -26 -51 -4 -11 14 -10 18 5 30 27 20 60 1 46 -26z m-262 -395 c47 -8
59 -16 73 -48 17 -39 64 -65 89 -49 13 8 40 2 112 -23 97 -33 109 -34 121 -3
5 14 11 16 29 9 15 -5 39 -3 68 5 76 23 85 20 109 -37 26 -64 27 -94 1 -116
-13 -12 -20 -30 -20 -55 0 -21 -4 -38 -8 -38 -5 0 -23 18 -41 40 -36 45 -47
49 -56 20 -15 -48 -14 -74 4 -115 16 -37 26 -46 59 -54 45 -12 62 -41 62 -102
0 -22 7 -55 15 -75 13 -31 12 -64 -3 -64 -3 0 -23 12 -43 26 -21 14 -55 27
-80 29 -167 15 -201 15 -246 1 -27 -8 -84 -17 -128 -19 -80 -5 -80 -5 -116 29
-44 43 -93 59 -110 37 -10 -11 -10 -19 -1 -34 37 -59 -4 -69 -128 -29 -110 35
-143 36 -148 4 -2 -12 -12 -30 -23 -40 -19 -17 -20 -16 -48 10 -24 23 -34 26
-65 21 l-36 -7 4 91 c2 51 6 94 9 98 4 3 39 9 79 13 41 4 83 12 95 18 30 17
75 15 101 -4 30 -21 256 -18 333 5 48 15 59 15 132 0 98 -19 130 -15 167 23
39 39 38 63 -2 84 -52 26 -68 45 -68 79 0 38 -19 50 -47 30 -15 -12 -16 -17
-5 -34 30 -50 1 -109 -34 -70 -10 11 -19 26 -20 32 0 7 -2 19 -2 28 -3 26 -28
30 -55 9 -13 -10 -38 -18 -55 -18 -18 1 -35 -2 -39 -5 -3 -4 -14 0 -24 9 -10
9 -34 19 -54 24 -31 7 -40 5 -57 -12 -18 -18 -24 -19 -40 -9 -16 10 -26 9 -54
-4 -18 -8 -75 -24 -126 -35 -51 -11 -112 -27 -136 -36 -39 -15 -45 -15 -67 0
-37 24 -58 62 -51 90 5 19 18 28 63 42 32 9 78 27 103 40 25 12 65 29 90 37
25 8 77 24 115 37 39 12 76 24 83 26 24 7 25 35 2 59 -12 13 -19 28 -16 33 5
9 76 8 134 -3z m-1837 -179 c13 -6 16 -22 14 -93 -1 -47 2 -108 7 -137 8 -48
2 -108 -22 -219 -6 -27 -3 -54 9 -95 18 -60 19 -109 3 -179 -13 -55 -7 -170
10 -190 7 -9 32 -25 56 -35 l43 -19 34 28 c32 27 34 31 35 98 1 39 3 81 6 93
2 14 -5 36 -17 53 -26 37 -27 52 -5 117 18 55 18 73 -5 129 -10 25 -10 41 0
85 11 45 11 61 -2 104 -14 47 -14 52 4 75 25 32 24 40 -11 84 -33 42 -37 57
-16 74 11 10 22 9 46 -4 20 -10 47 -15 70 -12 25 3 52 -3 81 -17 46 -22 50
-32 35 -87 -5 -18 -3 -31 8 -41 13 -14 12 -21 -13 -69 l-29 -54 19 -90 c10
-49 20 -103 23 -118 2 -16 16 -46 30 -68 32 -47 32 -47 2 -70 -35 -27 -79
-143 -72 -190 9 -67 30 -86 91 -88 11 0 35 -3 53 -7 53 -11 64 7 56 90 -13
138 -11 179 12 211 34 49 35 70 2 122 -28 43 -29 50 -18 86 18 62 24 124 24
255 -1 110 1 122 17 122 10 0 50 12 90 26 53 19 74 23 83 14 14 -14 12 -148
-4 -223 -14 -72 -7 -129 29 -213 16 -37 27 -73 24 -80 -3 -7 -16 -14 -31 -16
-26 -3 -26 -3 -29 -108 -2 -58 -6 -125 -10 -150 -8 -57 -6 -70 19 -97 23 -25
107 -48 138 -38 42 13 56 87 28 142 -9 18 -8 29 7 57 17 32 17 36 2 59 -8 13
-18 49 -20 78 -2 30 -8 63 -14 74 -5 11 -7 34 -3 50 3 17 2 42 -3 58 -11 32 5
57 35 57 19 0 19 1 -2 35 -21 34 -22 40 -10 116 6 44 8 88 5 98 -8 28 42 80
108 114 30 15 62 25 70 21 18 -7 28 -43 25 -96 -1 -30 4 -42 25 -59 34 -26 34
-46 2 -89 -31 -42 -31 -64 0 -115 28 -46 32 -93 10 -135 -9 -17 -17 -68 -20
-119 -3 -49 -9 -100 -14 -113 -6 -15 -5 -31 1 -42 12 -22 3 -87 -18 -128 -12
-22 -18 -61 -20 -116 -1 -49 -7 -89 -15 -98 -20 -24 -75 -43 -111 -38 -18 3
-39 5 -45 5 -20 -1 -35 -1 -68 2 -24 2 -31 -2 -33 -19 -4 -25 -32 -54 -59 -59
-10 -2 -19 -4 -20 -4 -1 -1 4 -20 12 -42 19 -53 19 -118 0 -143 -34 -44 -14
-67 70 -80 42 -7 68 -23 59 -37 -9 -15 -42 -10 -83 11 -30 15 -41 17 -49 7 -6
-7 -10 -82 -11 -171 0 -87 -3 -161 -5 -163 -2 -3 1 -22 9 -42 8 -24 10 -43 4
-54 -5 -9 -9 -46 -8 -84 1 -98 -6 -224 -15 -254 -6 -21 -3 -31 16 -48 15 -14
19 -24 12 -29 -19 -12 -33 -48 -28 -69 3 -12 25 -29 55 -42 47 -20 52 -20 82
-6 18 8 42 30 55 48 21 32 22 38 12 133 -21 213 -29 281 -38 305 -16 42 -24
126 -14 146 5 10 12 36 15 58 3 22 8 55 12 72 5 20 3 38 -3 46 -7 8 -7 18 -2
27 6 8 10 33 10 54 0 26 7 47 20 61 l20 22 -22 28 c-37 47 -28 175 11 175 9 0
33 -12 54 -26 l38 -25 54 30 c52 29 60 30 55 6 -1 -5 -2 -33 -1 -62 0 -43 -3
-53 -19 -58 -16 -5 -18 -10 -9 -33 10 -25 6 -116 -7 -202 -7 -45 -14 -267 -18
-585 -4 -300 -8 -324 -56 -347 -86 -42 -380 -60 -530 -33 -117 21 -221 18
-425 -12 -85 -12 -160 7 -190 49 -17 25 -9 48 15 48 10 0 26 7 34 16 19 19 11
37 -41 95 -35 39 -36 40 -39 142 -1 56 -8 121 -16 145 -9 31 -9 47 -1 60 6 11
8 35 4 63 -4 25 -6 90 -5 144 1 79 -2 109 -17 143 -17 40 -17 46 -4 72 19 37
19 73 -1 111 -9 18 -12 39 -8 52 4 12 8 81 9 154 l1 132 -28 21 c-34 25 -72
26 -98 0 -19 -19 -19 -20 1 -66 18 -44 19 -50 5 -85 -14 -34 -13 -41 4 -90 16
-44 18 -59 8 -85 -9 -25 -8 -42 3 -80 16 -59 16 -54 7 -131 -4 -34 -14 -73
-23 -86 -13 -20 -26 -138 -25 -224 0 -13 0 -33 0 -45 0 -23 -8 -444 -9 -484
-2 -48 -73 -31 -121 29 -19 24 -24 41 -23 76 1 25 -4 71 -12 102 -7 32 -9 61
-5 66 5 4 10 47 11 95 2 72 0 90 -15 107 -12 14 -16 28 -12 48 22 98 23 147 6
168 -24 29 -12 308 15 359 l19 34 -30 37 c-16 21 -33 43 -38 50 -11 15 15 106
44 150 18 27 18 31 3 47 -19 21 -14 28 30 43 28 9 32 14 31 45 -1 19 -4 49 -8
66 -7 29 -5 33 41 62 49 31 99 41 119 23 33 -31 91 -10 79 29 -4 12 1 19 14
23 12 3 26 17 33 32 10 22 9 35 -6 77 -14 39 -16 64 -10 116 4 37 8 92 10 122
1 30 6 85 11 121 12 94 7 178 -12 199 -27 30 -62 31 -94 0 -37 -34 -51 -86
-49 -180 2 -91 -8 -193 -22 -219 -5 -11 -12 -41 -15 -67 -10 -79 -48 -135 -63
-93 -5 12 -26 33 -47 48 -29 19 -39 34 -41 56 -1 17 -8 43 -14 60 -10 26 -9
32 8 43 20 13 20 14 1 99 -23 105 -23 107 -4 99 24 -9 29 20 11 64 -22 55 -20
67 11 82 39 18 38 35 0 94 -32 48 -33 52 -15 63 10 6 18 20 18 31 0 19 7 20
103 19 112 0 160 5 227 26 76 23 106 23 161 1z m2621 -518 c20 -16 24 -36 15
-65 -15 -42 -33 -33 -43 23 -10 57 -4 66 28 42z m-225 -140 c2 -35 6 -79 8
-98 11 -96 13 -189 3 -227 -9 -38 -14 -43 -39 -43 -16 0 -53 8 -82 19 -56 19
-97 14 -97 -12 0 -8 16 -41 36 -73 31 -52 35 -65 31 -111 -4 -40 -1 -55 12
-67 21 -19 60 -21 95 -5 41 19 60 -3 50 -60 -10 -63 -6 -108 12 -143 16 -31
12 -104 -8 -145 -8 -17 -8 -37 0 -75 7 -29 14 -80 16 -113 3 -33 8 -85 12
-116 5 -46 3 -58 -12 -73 -16 -16 -18 -39 -20 -195 0 -97 -6 -194 -12 -216 -6
-22 -11 -78 -11 -125 -2 -83 -10 -104 -37 -93 -8 3 -23 20 -35 39 -17 28 -21
52 -23 151 -2 76 2 131 10 155 11 33 10 47 -8 109 -14 46 -18 73 -11 77 34 22
43 110 20 178 -14 40 -16 98 -4 111 4 3 -4 25 -18 48 -13 23 -22 44 -20 46 2
3 6 16 8 29 3 14 10 38 16 54 6 16 9 37 6 47 -3 10 -1 36 5 57 13 51 6 69 -33
78 -18 4 -42 13 -54 21 -18 12 -23 12 -30 1 -4 -8 -23 -25 -42 -37 -32 -23
-33 -26 -26 -70 4 -25 7 -71 7 -101 -1 -30 -1 -89 -1 -131 0 -49 -6 -90 -17
-119 -25 -62 -25 -240 0 -292 10 -21 14 -43 10 -50 -4 -6 -9 -80 -10 -163 -1
-82 -5 -159 -7 -170 -3 -11 -6 -23 -6 -26 -2 -11 -36 -16 -57 -8 -15 5 -25 26
-38 76 -10 37 -24 86 -32 108 -22 65 -24 201 -3 242 16 32 16 38 2 86 -8 29
-16 53 -18 55 -2 2 4 31 11 65 16 65 16 104 1 124 -10 14 -21 425 -12 461 3
14 13 22 25 22 13 0 24 10 30 25 8 21 15 25 37 22 44 -7 60 8 67 59 3 26 19
70 36 99 37 65 38 92 4 105 -14 6 -29 10 -34 10 -8 0 -36 -26 -68 -65 -12 -14
-17 -13 -54 7 -22 13 -46 35 -54 50 -8 15 -27 34 -42 42 -28 15 -23 21 22 28
33 5 42 32 28 84 -9 34 -10 50 -2 59 8 10 8 25 1 52 -6 21 -11 61 -11 89 0 51
0 52 42 69 35 14 55 15 127 7 47 -5 106 -10 131 -10 25 0 57 -1 73 -2 15 -1
40 8 55 19 15 10 29 18 31 15 2 -2 6 -32 8 -66z m-744 52 c93 -14 129 -33 125
-68 -2 -16 -12 -31 -28 -39 -42 -21 -49 -38 -36 -86 7 -23 10 -53 6 -67 -4
-14 -1 -42 7 -64 37 -107 -10 -153 -127 -127 -62 15 -60 15 -153 5 -37 -4 -70
-11 -73 -15 -6 -10 -48 -12 -57 -2 -4 3 -2 12 4 19 8 10 2 21 -26 47 -36 33
-36 35 -31 90 3 36 13 67 27 86 25 35 22 75 -11 119 -11 15 -22 41 -23 57 l-2
30 125 3 c69 2 141 7 160 12 19 4 37 8 40 9 3 0 36 -4 73 -9z m-382 -440 c26
-15 24 -27 -7 -34 -34 -9 -52 7 -34 29 15 18 16 18 41 5z m-81 -112 c0 -6 -12
-27 -26 -45 -22 -29 -31 -33 -52 -28 -14 3 -34 12 -45 20 -18 13 -18 14 2 34
15 15 28 20 45 15 14 -3 33 -1 43 5 24 14 33 14 33 -1z m1253 -34 c11 -11 -3
-24 -18 -18 -8 4 -12 10 -9 15 6 11 18 12 27 3z m127 -368 c0 -29 -11 -44 -31
-39 -23 6 -24 11 -2 35 19 22 33 23 33 4z m-357 -572 c-3 -8 -14 -14 -25 -14
-10 0 -17 3 -15 8 2 4 7 15 11 26 5 14 9 16 21 6 7 -6 11 -18 8 -26z"/>
<path d="M2854 6356 c-26 -19 -9 -38 21 -24 14 6 25 15 25 19 0 14 -28 17 -46
5z"/>
<path d="M3904 5983 c-11 -11 -27 -30 -36 -41 -19 -24 -43 -27 -81 -13 -43 16
-83 19 -133 9 -58 -12 -110 -11 -135 2 -14 8 -21 4 -36 -20 -9 -17 -25 -33
-35 -36 -27 -8 -22 -49 10 -84 23 -27 34 -31 77 -32 28 0 69 5 92 11 28 8 66
8 119 2 101 -12 326 -7 382 8 45 13 62 36 62 86 0 74 -48 103 -118 69 -58 -28
-79 -24 -118 22 -31 36 -31 37 -50 17z"/>
<path d="M3697 5634 c-17 -9 -58 -16 -108 -17 -73 -2 -83 -5 -101 -27 -23 -28
-19 -70 11 -110 16 -21 25 -25 62 -22 24 2 169 5 322 6 320 4 312 2 312 87 0
43 -4 54 -28 75 -24 20 -35 23 -65 18 -43 -9 -63 -9 -242 0 -111 5 -140 3
-163 -10z"/>
<path d="M5031 3204 c0 -11 3 -14 6 -6 3 7 2 16 -1 19 -3 4 -6 -2 -5 -13z"/>
<path d="M4801 2847 c-7 -7 -7 -14 0 -23 12 -15 39 -7 39 11 0 18 -25 26 -39
12z"/>
<path d="M5096 2842 c-2 -4 -1 -14 4 -21 10 -17 31 -5 23 14 -6 16 -19 20 -27
7z"/>
<path d="M5232 2834 c2 -11 11 -20 22 -22 13 -3 17 1 14 14 -2 11 -11 20 -22
22 -13 3 -17 -1 -14 -14z"/>
<path d="M2706 2675 c-3 -8 -1 -15 4 -15 6 0 10 7 10 15 0 8 -2 15 -4 15 -2 0
-6 -7 -10 -15z"/>
<path d="M3387 2614 c-9 -10 2 -24 19 -24 8 0 14 7 14 15 0 15 -21 21 -33 9z"/>
<path d="M3765 2541 c-3 -5 -1 -12 5 -16 12 -7 30 2 30 16 0 12 -27 12 -35 0z"/>
<path d="M3213 2120 c-32 -13 -29 -51 8 -117 60 -104 137 -91 144 24 4 60 -24
94 -85 99 -25 2 -55 -1 -67 -6z"/>
<path d="M3574 2095 c-21 -33 -40 -112 -39 -162 1 -22 11 -63 23 -91 24 -54
23 -99 -3 -138 -9 -14 -20 -64 -26 -112 -5 -48 -16 -109 -24 -136 -18 -61 -8
-155 21 -187 15 -17 10 -77 -22 -233 -8 -38 -14 -95 -14 -127 0 -54 2 -59 33
-80 17 -13 38 -29 45 -36 7 -7 16 -13 18 -13 12 0 110 34 119 41 7 5 12 80 13
197 2 168 0 192 -17 226 -18 35 -18 39 -3 65 15 27 15 32 -1 67 -18 39 -19 67
-3 92 17 28 15 143 -4 198 -16 45 -17 54 -4 65 8 6 23 9 34 6 23 -6 26 13 9
62 -10 27 -9 34 6 45 14 10 16 20 11 42 -4 16 -10 48 -13 71 -4 35 -2 43 16
52 30 16 26 32 -16 73 -34 32 -44 36 -91 37 -44 0 -55 -4 -68 -24z m76 -966
c0 -10 -6 -19 -14 -19 -19 0 -28 14 -20 33 8 21 34 10 34 -14z"/>
<path d="M3000 2084 c0 -14 22 -44 30 -39 13 8 0 45 -16 45 -8 0 -14 -3 -14
-6z"/>
<path d="M3191 1916 c-12 -13 -25 -41 -28 -63 -4 -33 0 -43 29 -75 25 -28 43
-39 75 -43 24 -3 68 -17 99 -32 86 -39 106 0 25 51 -45 29 -48 33 -55 68 -8
44 -24 65 -70 92 -25 14 -46 26 -49 26 -2 0 -14 -11 -26 -24z"/>
<path d="M2671 1896 c-15 -17 14 -50 36 -42 8 3 19 6 24 6 17 0 9 29 -10 40
-26 13 -36 13 -50 -4z"/>
<path d="M3232 1667 c-6 -7 -14 -28 -17 -46 -3 -19 -12 -45 -19 -58 -9 -18
-10 -40 -4 -80 7 -47 6 -58 -12 -80 -26 -33 -25 -37 6 -78 29 -39 29 -36 11
-73 -22 -43 -41 -133 -38 -182 4 -57 3 -113 -3 -168 -3 -34 1 -48 18 -68 37
-43 146 -38 196 9 20 17 21 26 14 110 -4 51 -13 109 -20 131 -8 21 -14 68 -15
105 0 36 -4 75 -8 86 -5 12 -3 28 5 40 24 37 24 71 -2 108 -34 51 -32 77 6 77
35 0 39 16 11 51 -10 13 -22 40 -26 59 -12 58 -23 70 -59 70 -19 0 -38 -6 -44
-13z"/>
<path d="M3590 751 c0 -13 26 -32 33 -24 8 7 -11 33 -24 33 -5 0 -9 -4 -9 -9z"/>
<path d="M3915 747 c-10 -8 -15 -19 -12 -24 12 -19 47 -22 63 -5 15 14 15 17
-2 29 -22 16 -26 16 -49 0z"/>
<path d="M5298 2527 c-46 -16 -74 -86 -50 -124 21 -33 124 -37 170 -7 22 14
24 21 18 62 -3 26 -13 53 -21 62 -17 16 -82 20 -117 7z"/>
<path d="M4698 2526 c-29 -12 -98 -72 -98 -84 0 -4 7 -18 16 -31 14 -19 23
-22 55 -18 21 3 55 13 76 23 35 17 38 22 37 57 -2 57 -33 76 -86 53z"/>
<path d="M5510 6519 c-19 -5 -51 -11 -70 -13 -19 -2 -64 -7 -100 -12 -73 -8
-64 -8 -183 3 -78 8 -90 7 -104 -9 -15 -17 -17 -17 -43 2 -58 41 -140 34 -162
-15 -10 -22 -7 -29 31 -70 37 -41 40 -47 29 -68 -8 -15 -13 -85 -14 -217 -1
-107 -4 -249 -7 -315 -4 -84 -2 -136 8 -175 18 -71 22 -142 11 -208 -10 -67 7
-97 65 -112 53 -15 66 -9 86 37 15 37 15 57 -2 178 -2 17 -6 131 -10 255 -3
124 -8 237 -10 250 -6 28 -8 363 -3 398 2 12 6 22 11 22 4 0 13 0 20 0 8 0 31
-15 51 -32 l38 -33 3 -120 c2 -66 7 -131 12 -145 5 -14 8 -45 6 -70 -2 -25 -5
-186 -6 -359 -2 -337 -3 -334 49 -347 38 -10 71 3 78 30 3 14 3 96 0 183 -5
151 -7 160 -35 209 -34 61 -37 109 -10 162 31 60 54 162 47 207 -4 22 -18 75
-32 118 -28 85 -27 140 4 156 9 4 76 7 148 5 185 -5 244 17 213 82 -11 23 -21
29 -49 31 -19 1 -51 -3 -70 -8z"/>
<path d="M3972 6477 c-12 -12 -18 -28 -14 -34 10 -15 53 -31 70 -26 25 9 6 83
-22 83 -7 0 -22 -10 -34 -23z"/>
<path d="M1355 6456 c-57 -13 -65 -13 -118 -2 -45 10 -67 -4 -67 -44 0 -40 40
-56 86 -34 29 14 39 14 65 4 23 -10 36 -10 55 -1 55 25 82 6 86 -60 1 -19 6
-40 11 -46 27 -36 110 12 102 59 -2 12 -19 35 -37 50 -17 15 -33 35 -34 43 -7
46 -51 55 -149 31z"/>
<path d="M793 6431 c-65 -30 -84 -86 -38 -111 22 -12 28 -10 57 12 18 14 44
29 58 33 55 16 76 56 41 75 -29 15 -71 12 -118 -9z"/>
<path d="M6005 6438 c-27 -5 -60 -12 -72 -14 -15 -3 -23 -12 -23 -25 0 -11 9
-23 23 -28 55 -22 217 15 217 49 0 31 -45 37 -145 18z"/>
<path d="M6006 6328 c-10 -16 -16 -54 -17 -123 -5 -228 -5 -220 24 -259 33
-42 61 -46 102 -14 26 20 27 23 20 87 -12 108 -14 181 -4 214 12 42 5 58 -33
83 -54 36 -75 38 -92 12z"/>
<path d="M5426 6268 c-23 -36 -18 -304 7 -341 24 -37 44 -43 67 -22 75 68 42
385 -40 385 -11 0 -26 -10 -34 -22z"/>
<path d="M6252 6116 c3 -149 5 -167 24 -193 29 -39 77 -43 100 -8 15 23 16 34
6 93 -7 37 -14 85 -16 107 -2 22 -6 49 -9 60 -3 11 -6 27 -6 36 -1 25 -51 69
-78 69 l-24 0 3 -164z"/>
<path d="M5718 6243 c-24 -14 -44 -26 -46 -27 -1 -2 2 -59 7 -129 9 -133 26
-178 72 -192 56 -18 110 76 89 155 -5 19 -12 62 -15 95 -2 33 -7 72 -10 86 -8
38 -44 42 -97 12z"/>
<path d="M676 6190 c-21 -37 -7 -63 32 -58 36 4 49 30 32 62 -18 35 -42 33
-64 -4z"/>
<path d="M999 6173 c-34 -21 -59 -73 -53 -108 7 -40 41 -102 59 -109 9 -3 44
-6 78 -6 67 0 129 24 132 50 21 161 19 167 -55 177 -40 6 -41 5 -58 -36 -21
-51 -37 -48 -33 7 2 38 0 42 -21 42 -13 0 -35 -8 -49 -17z"/>
<path d="M1496 6108 c-3 -24 -8 -65 -11 -92 -3 -27 -8 -52 -10 -56 -2 -3 -6
-26 -10 -50 -9 -65 -24 -118 -34 -122 -5 -2 -11 -16 -14 -33 -7 -41 -28 -85
-41 -85 -6 0 -16 10 -21 23 -16 36 -56 29 -77 -13 -10 -19 -38 -59 -63 -88
-36 -43 -43 -57 -36 -75 5 -12 4 -33 0 -46 -18 -48 51 -95 111 -76 21 7 28 49
11 59 -18 11 -18 55 -1 71 10 9 16 24 13 34 -3 13 7 25 34 41 124 74 225 -61
168 -225 -19 -55 -15 -133 9 -169 12 -19 11 -24 -5 -45 -11 -13 -19 -31 -19
-42 0 -10 -5 -21 -10 -24 -6 -4 -8 -10 -6 -14 3 -4 1 -13 -4 -20 -4 -8 0 -30
10 -55 12 -26 16 -52 12 -71 -5 -28 -13 -178 -15 -310 0 -39 7 -80 20 -116 19
-49 20 -59 8 -80 -28 -49 -31 -63 -29 -148 2 -57 -2 -100 -12 -128 -13 -37
-13 -45 0 -78 13 -30 14 -48 5 -103 -6 -37 -11 -80 -11 -97 1 -89 11 -204 21
-234 6 -21 8 -74 5 -135 -4 -56 -2 -123 3 -151 5 -28 5 -70 0 -95 -5 -25 -12
-112 -15 -195 -7 -137 -6 -153 12 -183 24 -42 24 -73 -2 -110 -24 -32 -23 -67
3 -128 9 -22 15 -52 14 -69 -3 -34 8 -75 20 -75 15 0 28 -45 24 -80 -3 -19
-13 -44 -22 -55 -11 -12 -21 -44 -25 -76 -6 -56 -5 -57 44 -122 51 -67 75 -83
110 -72 29 9 25 40 -12 92 -29 40 -33 53 -32 107 0 44 6 70 21 95 21 33 21 34
2 65 -34 56 -16 108 34 99 14 -3 28 0 31 6 8 12 -39 45 -52 38 -4 -3 -14 -2
-21 3 -12 7 -11 15 2 48 25 63 27 90 10 141 -29 86 -34 245 -9 320 15 43 16
60 8 90 -6 20 -11 64 -11 98 0 34 -2 67 -6 73 -8 13 -19 263 -16 379 1 59 6
90 16 101 21 23 19 57 -6 97 l-21 33 26 50 c32 62 32 78 1 124 -25 37 -34 86
-15 86 19 0 31 54 35 150 3 52 7 139 10 194 6 92 4 100 -16 122 l-23 24 23 31
c23 31 29 72 17 126 -5 21 -1 35 14 53 29 34 25 47 -22 63 -36 12 -43 18 -40
38 1 12 10 31 19 41 19 21 43 83 43 111 0 9 -11 23 -25 29 -31 14 -32 38 -2
66 28 26 51 27 102 6 44 -18 72 -48 79 -84 14 -70 19 -110 20 -160 1 -30 7
-70 15 -88 12 -29 12 -37 -3 -70 -10 -23 -16 -60 -15 -97 1 -33 -4 -75 -12
-93 -13 -32 -13 -35 10 -53 60 -48 114 -4 150 122 12 45 15 75 9 99 -26 116
-24 397 3 401 5 1 15 2 22 3 19 3 66 -33 81 -62 28 -57 49 -177 41 -239 -10
-67 -9 -78 10 -155 12 -48 12 -64 1 -102 -14 -45 -14 -167 0 -321 8 -92 15
-243 13 -275 -1 -14 -1 -32 0 -40 6 -89 7 -198 1 -214 -4 -11 -1 -39 6 -63 7
-23 10 -55 7 -70 -9 -45 -6 -246 5 -273 11 -28 9 -149 -3 -195 -4 -16 -6 -93
-5 -170 5 -285 0 -391 -25 -487 -4 -15 -1 -36 6 -49 15 -29 15 -190 0 -247 -7
-22 -9 -52 -6 -64 13 -54 12 -137 -2 -178 -14 -40 -13 -49 3 -102 17 -58 17
-59 -2 -73 -19 -13 -20 -24 -18 -203 1 -124 6 -197 14 -211 13 -26 5 -105 -16
-156 -7 -18 -11 -34 -9 -36 2 -2 6 -51 9 -109 3 -58 7 -112 8 -120 1 -8 -1
-58 -5 -110 -5 -52 -10 -144 -11 -203 -5 -142 -4 -141 -139 -144 -56 -1 -128
-4 -160 -8 -43 -4 -62 -2 -79 9 -12 9 -30 16 -39 16 -22 0 -27 23 -24 112 1
40 -2 84 -7 97 -5 15 -5 36 1 55 19 61 19 95 0 133 -10 20 -19 45 -19 55 0 9
-4 19 -9 22 -4 3 -6 17 -3 32 4 22 -3 34 -43 70 -40 37 -45 47 -35 59 7 8 29
15 49 15 20 0 42 4 50 9 23 15 16 60 -17 94 -16 18 -35 43 -42 56 -11 21 -9
26 14 47 25 24 26 34 3 82 -8 17 -7 30 5 55 9 19 16 59 16 93 0 34 4 70 10 80
11 21 9 116 -3 153 -5 16 -1 28 14 42 26 24 18 45 -23 59 -54 17 -76 20 -102
10 -37 -14 -39 -36 -10 -80 24 -37 25 -42 12 -63 -8 -12 -17 -34 -20 -49 -2
-15 -11 -40 -19 -55 -31 -58 -45 -108 -36 -131 5 -14 5 -80 -1 -158 -8 -119
-7 -141 9 -193 16 -52 17 -68 6 -133 -14 -85 -47 -160 -84 -189 -21 -17 -34
-19 -71 -14 -25 3 -53 8 -62 11 -21 6 -66 -38 -74 -73 -18 -71 37 -103 139
-81 44 10 73 -2 130 -55 l38 -36 -15 -35 c-16 -39 -16 -38 -16 -60 0 -8 -17
-20 -38 -27 -20 -7 -46 -18 -57 -25 -14 -9 -31 -10 -55 -5 -19 4 -87 6 -150 4
-138 -4 -200 7 -305 55 -99 44 -145 47 -182 10 -25 -25 -26 -29 -15 -66 16
-53 70 -106 124 -121 41 -12 48 -11 91 12 42 23 56 25 139 22 51 -2 113 -8
138 -12 25 -4 77 -5 115 0 170 19 439 21 515 4 30 -7 73 -12 95 -10 47 4 204
5 291 2 33 -1 73 1 87 5 21 5 33 1 52 -18 19 -19 26 -22 35 -11 26 32 29 74 8
147 -13 48 -17 77 -11 88 11 18 10 100 -1 118 -4 6 -9 56 -10 109 -2 54 -8
116 -14 138 -6 22 -12 81 -13 130 -2 50 -9 109 -17 132 -11 34 -11 50 -2 79
11 33 9 41 -20 100 -30 58 -32 65 -18 86 17 26 28 74 31 130 1 20 5 40 9 44
13 13 9 54 -8 80 -15 23 -15 26 0 42 19 22 27 92 16 133 -24 82 -31 340 -11
377 6 12 11 56 9 99 -1 43 1 87 4 98 3 11 1 34 -4 50 -11 34 -12 186 -2 217 3
11 15 29 25 39 27 27 23 49 -11 62 -26 10 -30 16 -25 37 4 14 18 37 32 52 15
16 23 33 20 43 -4 8 -9 37 -13 63 -3 26 -11 56 -17 67 -11 20 -21 205 -11 205
3 0 14 -5 25 -10 27 -15 26 10 -2 33 -17 15 -18 21 -8 33 10 12 9 21 -5 45
-10 17 -15 37 -11 47 15 37 15 66 1 122 -8 32 -13 69 -11 81 13 84 15 158 4
185 -14 33 -20 332 -8 349 15 21 21 81 19 190 -3 121 -2 236 1 395 1 58 -2
125 -6 150 -9 52 -9 76 0 220 4 58 12 113 17 123 6 12 5 23 -3 33 -15 19 -115
19 -152 -1 -23 -12 -32 -12 -60 0 -48 20 -181 25 -213 9 -37 -19 -41 -18 -59
16 -20 39 -32 38 -52 -5 -19 -40 -43 -46 -43 -11 0 31 -22 48 -53 41 -29 -8
-62 7 -76 34 -7 12 -7 49 0 107 14 128 14 157 -1 162 -57 19 -68 115 -24 209
44 92 27 153 -42 153 -31 0 -33 -2 -38 -42z"/>
<path d="M1915 6120 c-81 -17 -153 -117 -97 -135 36 -11 174 -15 215 -5 22 5
48 5 56 0 19 -10 101 9 124 28 15 12 15 38 1 83 -8 29 -82 39 -128 18 -20 -10
-28 -9 -42 5 -17 17 -65 19 -129 6z"/>
<path d="M722 6078 c-5 -7 -12 -27 -15 -43 -2 -17 -17 -48 -31 -70 -31 -46
-30 -61 6 -88 34 -26 51 -14 67 47 6 24 26 60 46 81 42 46 43 58 10 73 -34 16
-70 15 -83 0z"/>
<path d="M664 5785 c-19 -29 -27 -196 -11 -232 11 -25 30 -35 52 -27 12 5 14
16 9 53 -7 55 4 69 57 72 19 2 42 6 51 11 12 6 30 -3 65 -30 78 -62 80 -67 36
-88 -21 -11 -38 -26 -39 -34 0 -8 12 -41 28 -72 16 -32 28 -61 27 -65 -1 -5
-12 -21 -25 -36 -31 -36 -30 -62 1 -93 20 -20 29 -23 45 -14 36 19 45 61 25
119 -3 7 -1 19 5 26 7 9 6 32 -3 77 -8 36 -12 78 -9 94 2 16 4 48 3 72 -2 52
13 60 69 38 56 -22 95 -8 85 32 -3 15 -13 37 -21 49 -12 19 -18 21 -41 13 -16
-6 -63 -16 -105 -23 -80 -14 -108 -8 -146 30 -23 23 -89 53 -116 53 -16 0 -32
-9 -42 -25z"/>
<path d="M5430 5769 c-29 -41 -30 -44 -24 -123 5 -61 3 -96 -10 -138 -23 -79
-21 -114 9 -143 30 -31 84 -34 109 -6 29 32 49 212 35 315 -5 39 -16 66 -34
89 -44 52 -51 52 -85 6z"/>
<path d="M6012 5763 c-20 -45 -27 -294 -10 -383 12 -70 26 -85 71 -76 58 11
70 34 67 123 -2 43 -4 130 -5 193 -1 138 -1 140 -19 140 -7 0 -25 9 -39 20
-35 28 -46 25 -65 -17z"/>
<path d="M6271 5781 c-12 -8 -15 -42 -13 -183 0 -95 1 -181 1 -190 1 -10 16
-35 35 -55 47 -53 51 -72 21 -107 -14 -16 -25 -37 -25 -46 0 -20 -39 -39 -87
-42 -34 -2 -72 14 -117 50 -27 21 -30 22 -47 6 -10 -9 -22 -32 -25 -51 -9 -47
-11 -447 -3 -503 18 -119 19 -144 10 -202 -10 -58 -9 -64 15 -95 l25 -32 -26
-40 c-14 -21 -26 -47 -26 -57 0 -28 -1 -113 -3 -164 -2 -63 23 -192 41 -212 8
-9 27 -20 43 -23 15 -3 49 -26 75 -50 26 -25 51 -45 54 -45 4 0 17 7 29 16 13
9 25 14 27 12 5 -4 13 -43 14 -64 1 -6 26 -31 56 -54 69 -53 86 -46 60 27 -23
60 -63 106 -88 99 -33 -8 -12 18 34 40 41 21 57 43 34 45 -41 4 -60 43 -26 54
22 7 41 53 41 101 0 27 -4 34 -19 34 -27 0 -44 -25 -50 -73 -5 -33 -11 -43
-27 -45 -16 -2 -23 4 -28 22 -4 16 -14 26 -26 27 -11 1 -23 2 -27 3 -5 1 -24
6 -43 10 -47 11 -110 54 -110 77 0 9 16 31 35 47 43 35 53 79 35 149 -21 84
-29 269 -15 354 5 31 4 49 -4 53 -17 11 -13 42 6 62 15 14 18 37 19 131 0 62
3 115 6 118 3 3 38 2 77 -1 58 -6 75 -11 86 -28 21 -33 35 -231 19 -258 -8
-12 16 -68 28 -68 5 0 4 -10 -3 -21 -19 -36 -14 -129 11 -197 36 -99 51 -80
45 55 -2 49 -8 102 -12 118 -13 43 -5 73 23 91 27 18 32 42 10 50 -26 10 -32
37 -42 189 -8 126 -8 165 1 365 18 439 16 451 -59 488 -49 25 -46 25 -65 13z
m-169 -1803 c-6 -6 -15 -8 -19 -4 -4 4 -1 11 7 16 8 5 17 7 19 4 3 -2 -1 -10
-7 -16z m148 -57 c12 -23 3 -51 -16 -51 -13 0 -34 30 -34 49 0 5 8 12 18 14 9
3 18 5 19 6 1 0 7 -8 13 -18z"/>
<path d="M5743 5766 c-60 -33 -61 -35 -58 -194 3 -156 11 -194 46 -212 22 -12
84 -6 94 10 3 5 8 51 10 102 3 51 7 125 10 165 9 117 -31 168 -102 129z"/>
<path d="M1227 5340 c-30 -23 -29 -48 4 -113 16 -30 19 -50 15 -81 -8 -52 13
-87 41 -70 10 6 19 24 21 40 1 16 7 46 14 66 14 48 -4 116 -41 152 l-28 27
-26 -21z"/>
<path d="M5742 5239 c-12 -5 -22 -12 -23 -16 -6 -44 -10 -144 -14 -400 -4
-258 -2 -308 11 -339 11 -25 13 -50 9 -73 -7 -36 -8 -56 -6 -306 0 -71 -5
-144 -11 -160 -8 -24 -7 -38 6 -69 9 -21 16 -66 16 -101 0 -66 14 -91 44 -79
22 8 86 108 86 133 0 11 -18 43 -40 72 l-40 53 35 14 c43 17 52 46 35 106 -10
36 -9 48 3 73 18 34 20 120 13 483 -3 135 -6 295 -7 355 -1 61 -6 121 -11 134
-5 13 -10 39 -13 58 -2 19 -9 41 -15 48 -14 17 -52 24 -78 14z"/>
<path d="M942 5193 c-25 -21 -29 -43 -18 -94 6 -30 3 -47 -23 -98 -29 -58 -30
-66 -26 -159 4 -100 10 -144 24 -171 4 -9 6 -42 4 -74 -2 -32 1 -66 7 -76 6
-13 6 -29 -1 -50 -9 -24 -8 -39 2 -63 16 -40 16 -147 -1 -188 -10 -25 -10 -42
-1 -86 13 -56 9 -88 -16 -116 -13 -15 -13 -25 -1 -80 18 -80 14 -183 -10 -217
-28 -42 -30 -64 -10 -99 13 -20 17 -39 12 -50 -12 -28 -11 -35 10 -79 18 -40
19 -44 3 -61 -22 -24 -27 -61 -12 -96 9 -21 9 -36 2 -56 -8 -21 -7 -39 2 -68
8 -22 11 -58 8 -83 -3 -24 -9 -69 -13 -99 -5 -41 -2 -65 10 -94 9 -21 16 -55
16 -75 0 -59 28 -141 48 -141 38 0 43 13 36 96 -3 43 -6 101 -5 128 1 27 -3
64 -8 83 -7 25 -4 52 11 108 20 72 20 76 3 112 -15 32 -17 56 -12 163 3 69 2
134 -2 145 -6 13 -2 33 10 57 l19 37 -26 30 c-24 29 -25 31 -8 63 15 28 15 41
5 89 -12 60 -8 82 21 113 13 14 16 29 12 50 -9 53 -12 308 -3 366 7 41 5 69
-7 112 -14 47 -14 65 -4 106 10 46 8 111 -6 133 -3 5 0 17 5 27 7 13 5 32 -5
62 -16 46 -12 126 9 187 9 28 8 37 -11 62 -12 17 -18 32 -13 36 5 3 15 21 21
41 11 33 10 38 -12 61 -24 23 -25 24 -46 6z"/>
<path d="M655 5188 c-9 -25 -20 -134 -17 -171 4 -42 25 -58 48 -35 18 17 21
166 5 197 -13 24 -29 27 -36 9z"/>
<path d="M1193 5050 c-26 -11 -30 -46 -12 -120 6 -25 12 -52 13 -60 1 -8 6
-27 10 -41 5 -18 2 -37 -9 -59 -12 -24 -16 -57 -15 -143 3 -182 2 -276 -4
-394 -4 -79 -2 -122 8 -150 13 -39 13 -58 1 -148 -4 -27 -6 -57 -6 -65 8 -129
20 -231 29 -254 7 -16 9 -38 6 -50 -4 -11 -8 -31 -10 -44 -1 -12 -5 -49 -9
-81 -3 -33 -12 -82 -20 -110 -19 -74 -14 -190 11 -226 13 -21 19 -45 18 -80
-1 -27 4 -64 11 -81 10 -25 10 -37 -1 -63 -8 -19 -14 -41 -14 -51 0 -29 33
-58 72 -64 43 -7 49 3 42 64 -4 34 -1 47 16 65 17 18 19 27 10 49 -5 15 -11
64 -13 109 -2 50 -9 95 -19 114 -12 23 -13 34 -4 43 7 7 10 55 8 143 -2 92 1
146 11 178 12 38 12 57 0 125 -7 43 -17 91 -23 107 -6 19 -5 39 4 65 7 22 10
53 5 76 -3 22 -5 85 -2 140 2 56 5 137 7 181 2 53 -2 92 -11 115 -10 24 -12
54 -8 95 13 131 13 145 -8 185 -19 39 -19 41 -2 60 13 14 17 33 16 63 -5 76
-5 92 3 134 11 61 -1 101 -44 145 -21 21 -40 38 -42 37 -2 0 -13 -4 -25 -9z"/>
<path d="M5600 4950 c0 -5 7 -10 16 -10 8 0 12 5 9 10 -3 6 -10 10 -16 10 -5
0 -9 -4 -9 -10z"/>
<path d="M654 4835 c-11 -14 -29 -39 -41 -55 -13 -15 -23 -30 -23 -33 0 -2 21
-12 46 -22 39 -15 48 -15 55 -4 18 28 15 107 -5 127 -12 12 -16 10 -32 -13z"/>
<path d="M580 4665 c0 -2 9 -9 20 -15 16 -9 18 -8 14 5 -5 13 -34 22 -34 10z"/>
<path d="M645 4610 c-34 -7 -35 -15 -2 -62 18 -27 27 -33 42 -28 11 4 24 5 29
2 15 -8 -5 62 -22 79 -12 11 -26 14 -47 9z"/>
<path d="M1982 4583 c-10 -4 -10 -8 -1 -19 13 -15 39 -19 39 -5 0 14 -24 29
-38 24z"/>
<path d="M629 4482 c-35 -15 21 -82 57 -68 21 8 17 30 -9 54 -25 24 -25 24
-48 14z"/>
<path d="M730 4450 c0 -19 6 -33 16 -37 31 -11 39 39 10 59 -20 14 -26 8 -26
-22z"/>
<path d="M1855 4349 c-15 -15 -21 -43 -26 -122 -6 -90 -5 -105 12 -129 17 -24
17 -30 4 -61 -22 -54 -23 -87 -3 -151 12 -39 17 -76 14 -106 -12 -100 -16
-347 -7 -376 7 -26 5 -39 -14 -70 -18 -30 -21 -44 -14 -68 24 -84 29 -189 12
-256 -11 -42 -11 -65 -3 -100 14 -58 15 -96 3 -197 -7 -63 -6 -96 5 -135 7
-30 11 -68 7 -88 -4 -19 -6 -44 -5 -55 4 -48 3 -63 -4 -107 -6 -36 -4 -58 7
-87 15 -37 15 -41 -4 -65 -22 -28 -27 -58 -15 -99 5 -17 4 -39 -4 -56 -10 -24
-9 -39 4 -83 20 -65 39 -89 95 -118 30 -15 41 -26 37 -36 -3 -9 -6 -17 -6 -18
0 -1 -15 0 -33 2 -25 3 -38 -2 -57 -23 -22 -24 -25 -34 -23 -95 2 -38 5 -86 7
-106 4 -26 -1 -46 -18 -73 -32 -49 -39 -77 -27 -99 37 -70 55 -212 38 -307 -4
-16 -9 -54 -12 -84 -3 -30 -10 -62 -15 -72 -6 -10 -10 -40 -10 -68 0 -73 21
-91 103 -91 84 0 104 7 116 40 8 23 5 34 -14 60 -20 27 -22 36 -13 68 10 37 5
208 -8 266 -6 27 -6 28 16 16 18 -10 25 -9 36 2 12 12 9 19 -16 50 -67 81 -77
136 -50 268 7 30 12 60 11 65 0 6 -4 35 -7 66 l-6 56 36 21 c28 17 35 26 32
44 -3 13 -5 28 -5 34 -1 7 -10 14 -21 17 -13 3 -20 14 -20 29 0 12 -7 36 -15
52 -22 42 -18 86 11 129 25 37 25 39 8 58 -9 10 -22 27 -28 37 -6 10 -21 34
-33 53 -27 41 -27 43 -7 63 23 24 42 19 59 -15 12 -22 22 -29 38 -27 29 4 30
48 2 63 -11 5 -20 17 -20 25 1 8 -5 34 -13 58 -10 29 -12 63 -8 105 4 34 7 91
7 127 1 61 19 120 38 120 11 0 31 47 31 74 0 13 -6 29 -14 35 -8 7 -12 20 -9
30 3 10 -3 33 -12 50 -20 40 -27 342 -7 349 16 5 -4 42 -23 42 -14 0 -19 12
-16 33 1 4 3 47 6 95 2 48 7 101 10 117 13 78 6 149 -26 250 -11 36 -19 76
-17 88 2 12 -4 27 -12 34 -13 10 -12 14 7 28 28 20 32 41 38 228 4 133 3 157
-10 157 -8 0 -24 14 -37 30 -26 35 -57 39 -83 9z m113 -1550 c7 -29 10 -55 6
-58 -12 -12 -44 42 -44 75 0 53 25 42 38 -17z"/>
<path d="M643 4304 c-6 -16 24 -65 44 -71 18 -6 21 29 6 60 -15 30 -40 36 -50
11z"/>
<path d="M6377 4264 c-8 -9 11 -44 23 -44 6 0 10 6 10 14 0 16 -24 38 -33 30z"/>
<path d="M565 4088 l-28 -33 24 -3 c38 -6 76 54 42 65 -6 2 -23 -11 -38 -29z"/>
<path d="M644 3879 c-28 -31 -27 -128 2 -166 15 -19 29 -27 45 -25 12 1 24 4
26 5 1 2 3 34 5 73 4 114 -31 165 -78 113z"/>
<path d="M691 3622 c-6 -2 -11 -9 -11 -16 0 -7 -11 -34 -25 -60 -13 -25 -27
-67 -30 -94 -12 -98 -18 -128 -31 -154 -13 -25 -13 -28 1 -28 9 0 25 5 36 10
29 16 99 -5 99 -29 0 -21 22 -33 45 -25 23 9 18 31 -14 53 -34 24 -50 65 -41
101 3 14 3 39 0 55 -7 31 2 133 15 172 6 18 3 22 -13 20 -10 0 -24 -3 -31 -5z"/>
<path d="M6369 3524 c-38 -40 -58 -48 -78 -30 -9 8 -35 18 -56 22 -22 3 -43 8
-47 10 -4 2 -10 -1 -13 -6 -11 -18 25 -51 82 -76 42 -19 63 -22 100 -17 60 7
71 16 66 51 -13 83 -16 86 -54 46z"/>
<path d="M5240 3467 c0 -8 7 -18 16 -21 11 -4 14 -1 12 11 -4 21 -28 30 -28
10z"/>
<path d="M6351 3250 c-54 -50 -110 -67 -162 -50 -21 7 -45 9 -56 5 -28 -13
-36 -12 -65 2 -52 25 -73 18 -94 -34 -22 -58 -20 -71 12 -100 32 -29 94 -31
118 -4 14 15 23 17 48 11 16 -5 53 -10 81 -11 52 -2 86 -13 98 -32 14 -21 37
3 42 45 11 87 23 144 36 166 11 21 8 42 -7 42 -4 -1 -27 -19 -51 -40z"/>
<path d="M635 3007 c-19 -30 -24 -65 -14 -102 5 -16 10 -49 11 -72 0 -23 5
-47 9 -54 4 -6 1 -26 -6 -44 -13 -30 -12 -50 11 -124 4 -15 2 -26 -7 -31 -9
-6 -13 -36 -14 -105 0 -137 24 -188 74 -156 12 8 13 20 4 66 -9 53 -8 61 19
117 24 48 29 68 24 102 -15 104 -25 259 -18 279 5 12 8 29 7 37 -1 8 -3 25 -3
38 -2 26 -44 72 -66 72 -9 0 -22 -10 -31 -23z"/>
<path d="M6357 2932 c-23 -25 -34 -93 -30 -177 3 -76 18 -101 51 -91 31 10 46
67 38 148 -5 61 -27 138 -39 138 -2 0 -11 -8 -20 -18z"/>
<path d="M1231 2679 c-21 -8 -23 -14 -18 -45 4 -24 1 -47 -9 -66 -14 -27 -13
-32 6 -63 12 -19 25 -35 28 -36 4 0 15 -2 24 -4 34 -6 48 27 51 118 1 47 -1
88 -5 92 -11 12 -51 13 -77 4z"/>
<path d="M6341 2586 c-8 -9 -12 -44 -10 -93 2 -87 12 -133 31 -144 11 -7 10
-13 0 -30 -16 -25 -16 -26 25 -32 44 -7 57 11 47 65 -4 24 -8 61 -9 83 0 26
-8 51 -23 69 -12 16 -22 39 -22 51 0 31 -24 50 -39 31z"/>
<path d="M1214 2410 c-29 -12 -62 -55 -74 -98 -8 -31 -6 -42 14 -77 27 -45 45
-106 51 -169 10 -100 19 -223 17 -241 -6 -86 0 -131 22 -173 12 -23 14 -37 7
-50 -5 -10 -12 -43 -15 -74 -3 -30 -12 -70 -20 -88 -11 -28 -12 -41 -1 -76 7
-24 11 -45 8 -48 -3 -2 -8 -21 -13 -40 -9 -43 9 -71 52 -82 22 -5 33 0 58 24
29 29 41 72 20 72 -5 0 -10 21 -10 48 0 26 -4 62 -9 79 -7 24 -6 41 5 63 30
58 23 204 -10 222 -20 11 -20 32 -2 47 10 9 13 25 9 54 -6 54 -6 50 8 135 11
63 11 77 -3 100 -16 28 -17 103 -2 165 11 46 11 47 -2 98 -7 27 -8 52 -3 60
12 19 11 25 -7 43 -17 17 -66 20 -100 6z"/>
<path d="M996 2323 c-9 -21 20 -45 49 -41 14 2 20 11 20 28 0 21 -5 26 -31 28
-23 2 -33 -2 -38 -15z"/>
<path d="M846 2212 c-9 -16 13 -94 38 -132 35 -53 71 -63 103 -26 l23 28 -20
36 c-22 38 -65 73 -112 91 -15 6 -29 7 -32 3z"/>
<path d="M6332 2113 c-19 -44 -19 -49 -5 -65 31 -34 82 -18 103 32 17 41 -7
80 -49 80 -24 0 -31 -7 -49 -47z"/>
<path d="M707 2124 c-3 -4 -2 -15 4 -25 8 -15 14 -17 29 -9 28 15 25 40 -3 40
-13 0 -27 -3 -30 -6z"/>
<path d="M1756 2005 c4 -8 16 -15 28 -15 21 1 21 1 2 15 -25 19 -37 19 -30 0z"/>
<path d="M695 1981 c-11 -5 -28 -17 -37 -28 -16 -17 -16 -22 -4 -38 14 -19 15
-19 51 0 48 25 66 52 45 65 -18 11 -28 12 -55 1z"/>
<path d="M916 1968 c-37 -21 -1 -88 48 -88 40 0 51 24 27 58 -23 33 -50 44
-75 30z"/>
<path d="M635 1834 c-12 -12 -14 -25 -9 -43 4 -14 8 -55 9 -90 1 -74 19 -98
61 -79 13 6 24 16 25 22 0 6 2 20 4 30 2 11 -2 28 -9 38 -8 11 -11 36 -8 66 4
44 2 49 -22 60 -34 15 -31 15 -51 -4z"/>
<path d="M915 1822 c-48 -48 -92 -152 -65 -152 6 0 30 -9 52 -20 43 -21 83
-26 92 -12 3 5 7 40 10 79 5 74 -5 102 -43 123 -15 7 -25 4 -46 -18z"/>
<path d="M6370 1791 c-17 -33 -13 -42 17 -30 45 17 53 49 13 49 -11 0 -24 -9
-30 -19z"/>
<path d="M650 1545 c-14 -17 -34 -261 -25 -309 3 -17 7 -68 8 -113 2 -67 6
-86 22 -102 42 -43 91 0 73 65 -6 22 -10 55 -10 74 1 32 1 106 0 185 0 54 19
127 36 137 27 15 19 43 -19 61 -44 21 -69 22 -85 2z"/>
<path d="M882 1446 c-10 -13 -9 -19 6 -71 9 -29 9 -41 0 -46 -6 -4 -11 -22
-10 -41 2 -18 2 -109 2 -203 0 -217 2 -229 44 -249 43 -20 65 -20 93 2 l23 17
-24 115 c-31 152 -32 379 -2 423 16 24 17 30 5 42 -18 17 -126 26 -137 11z"/>
<path d="M1690 1420 c0 -5 5 -10 10 -10 6 0 10 5 10 10 0 6 -4 10 -10 10 -5 0
-10 -4 -10 -10z"/>
<path d="M580 1181 c0 -12 5 -21 10 -21 6 0 10 6 10 14 0 8 -4 18 -10 21 -5 3
-10 -3 -10 -14z"/>
<path d="M1045 791 c-3 -5 -1 -12 5 -16 5 -3 10 1 10 9 0 18 -6 21 -15 7z"/>
</g>
</svg>
